<svg width="110" height="54" viewBox="0 0 110 54" fill="none" xmlns="http://www.w3.org/2000/svg">
<path d="M36.6643 54C35.1705 54 33.7964 53.7471 32.5421 53.2414C31.2877 52.7357 30.2044 52.0333 29.2922 51.1342C28.38 50.2352 27.6673 49.1675 27.1541 47.9313C26.6524 46.7063 26.4015 45.369 26.4015 43.9192L26.4015 37.9854C26.4015 36.5357 26.6524 35.1927 27.1541 33.9565C27.6673 32.7203 28.38 31.6527 29.2922 30.7536C30.2044 29.8545 31.2877 29.1465 32.5421 28.6296C33.7964 28.1238 35.1705 27.871 36.6643 27.871L41.351 27.871C42.8334 27.871 44.2017 28.1238 45.4561 28.6296C46.7218 29.1465 47.8051 29.8545 48.706 30.7536C49.6182 31.6527 50.3309 32.7203 50.844 33.9565C51.3572 35.1927 51.6137 36.5357 51.6137 37.9854L51.6137 43.9193C51.6137 45.369 51.3572 46.7063 50.844 47.9313C50.3309 49.1675 49.6182 50.2352 48.706 51.1342C47.8051 52.0333 46.7218 52.7357 45.4561 53.2414C44.2017 53.7471 42.8334 54 41.351 54H36.6643Z" fill="black"/>
<path d="M60.8664 54C59.9634 54 59.1327 53.8483 58.3744 53.5448C57.6161 53.2414 56.9612 52.82 56.4097 52.2805C55.8582 51.7411 55.4273 51.1005 55.1171 50.3588C54.8138 49.6238 54.6621 48.8214 54.6621 47.9515V33.0687C54.6621 32.1988 54.8138 31.393 55.1171 30.6513C55.4273 29.9096 55.8582 29.269 56.4097 28.7296C56.9612 28.1901 57.6161 27.7653 58.3744 27.4552C59.1327 27.1517 59.9634 27 60.8664 27H63.6998C64.5959 27 65.4232 27.1517 66.1815 27.4552C66.9467 27.7653 67.6016 28.1901 68.1462 28.7296C68.6977 29.269 69.1285 29.9096 69.4387 30.6513C69.749 31.3931 69.9041 32.1988 69.9041 33.0687V47.9516C69.9041 48.8214 69.749 49.6238 69.4387 50.3588C69.1285 51.1005 68.6977 51.7411 68.1462 52.2805C67.6016 52.82 66.9467 53.2414 66.1815 53.5449C65.4232 53.8483 64.5959 54 63.6998 54H60.8664Z" fill="black"/>
<path d="M77.8196 38.3226C77.1745 38.3226 76.5812 38.213 76.0395 37.9939C75.4979 37.7747 75.0301 37.4703 74.6362 37.0808C74.2423 36.6912 73.9345 36.2285 73.7129 35.6928C73.4963 35.162 73.3879 34.5825 73.3879 33.9543V31.3829C73.3879 30.7547 73.4963 30.1728 73.7129 29.6371C73.9345 29.1014 74.2423 28.6387 74.6362 28.2491C75.0301 27.8595 75.4979 27.5527 76.0395 27.3287C76.5812 27.1096 77.1745 27 77.8196 27H79.8434C80.4835 27 81.0744 27.1096 81.616 27.3287C82.1626 27.5527 82.6304 27.8595 83.0194 28.2491C83.4133 28.6387 83.7211 29.1014 83.9427 29.6371C84.1642 30.1728 84.275 30.7547 84.275 31.3829V33.9543C84.275 34.5825 84.1642 35.162 83.9427 35.6928C83.7211 36.2285 83.4133 36.6912 83.0194 37.0808C82.6304 37.4703 82.1626 37.7747 81.616 37.9939C81.0744 38.213 80.4835 38.3226 79.8434 38.3226H77.8196Z" fill="black"/>
<path d="M77.8196 38.3226C77.1745 38.3226 76.5812 38.213 76.0395 37.9939C75.4979 37.7747 75.0301 37.4703 74.6362 37.0808C74.2423 36.6912 73.9345 36.2285 73.7129 35.6928C73.4963 35.162 73.3879 34.5825 73.3879 33.9543V31.3829C73.3879 30.7547 73.4963 30.1728 73.7129 29.6371C73.9345 29.1014 74.2423 28.6387 74.6362 28.2491C75.0301 27.8595 75.4979 27.5527 76.0395 27.3287C76.5812 27.1096 77.1745 27 77.8196 27H79.8434C80.4835 27 81.0744 27.1096 81.616 27.3287C82.1626 27.5527 82.6304 27.8595 83.0194 28.2491C83.4133 28.6387 83.7211 29.1014 83.9427 29.6371C84.1642 30.1728 84.275 30.7547 84.275 31.3829V33.9543C84.275 34.5825 84.1642 35.162 83.9427 35.6928C83.7211 36.2285 83.4133 36.6912 83.0194 37.0808C82.6304 37.4703 82.1626 37.7747 81.616 37.9939C81.0744 38.213 80.4835 38.3226 79.8434 38.3226H77.8196Z" fill="black"/>
<path d="M26.033 24.7965C27.7616 10.8195 41.8567 -1.8942e-06 56.3014 0C66.1161 1.28704e-06 74.7641 4.99505 79.8419 12.5817C81.5506 15.1345 82.8309 18.3395 81.8302 21.244C81.6327 21.8174 81.3421 22.2869 80.9358 22.6714C79.3499 24.1725 76.8614 23.9516 74.6777 23.9516H59.3571C58.296 23.9516 56.4005 24.339 55.6049 25.041L54.2012 26.2796C53.582 26.8259 52.6642 26.8624 52.0035 26.3669L49.9444 24.8226C49.1906 24.2572 48.2737 23.9516 47.3315 23.9516L32.9538 23.9516C29.9054 23.9516 30.2053 24.6813 27.728 26.2796C26.4529 27.1022 25.8468 26.3026 26.033 24.7965Z" fill="black"/>
</svg>
