<svg width="1334" height="761" viewBox="0 0 1334 761" fill="none" xmlns="http://www.w3.org/2000/svg">
<g opacity="0.63" filter="url(#filter0_f_893_2193)">
<path d="M642.796 380.5C642.796 533.207 522.183 657 373.398 657C224.614 657 104 533.207 104 380.5C104 227.793 224.614 104 373.398 104C522.183 104 642.796 227.793 642.796 380.5Z" fill="#C6C6C6"/>
<path d="M1021.07 380.5C1021.07 533.207 952.144 657 867.124 657C782.105 657 713.182 533.207 713.182 380.5C713.182 227.793 782.105 104 867.124 104C952.144 104 1021.07 227.793 1021.07 380.5Z" fill="#C6C6C6"/>
<path d="M1230 380.5C1230 533.207 1198.98 657 1160.73 657C1122.47 657 1091.45 533.207 1091.45 380.5C1091.45 227.793 1122.47 104 1160.73 104C1198.98 104 1230 227.793 1230 380.5Z" fill="#C6C6C6"/>
</g>
<defs>
<filter id="filter0_f_893_2193" x="0" y="0" width="1334" height="761" filterUnits="userSpaceOnUse" color-interpolation-filters="sRGB">
<feFlood flood-opacity="0" result="BackgroundImageFix"/>
<feBlend mode="normal" in="SourceGraphic" in2="BackgroundImageFix" result="shape"/>
<feGaussianBlur stdDeviation="52" result="effect1_foregroundBlur_893_2193"/>
</filter>
</defs>
</svg>
